<svg xmlns="http://www.w3.org/2000/svg" width="67.436" height="67.476" viewBox="0 0 67.436 67.476">
    <path id="Path_27550" fill="#f6f6f6" fill-rule="evenodd" d="M44.584 0A8.923 8.923 0 0 1 53.5 8.928v35.708a8.923 8.923 0 0 1-8.918 8.928H8.918A8.923 8.923 0 0 1 0 44.636V8.928A8.923 8.923 0 0 1 8.918 0zM15.605 17.854a5.208 5.208 0 1 0 5.2 5.208 5.205 5.205 0 0 0-5.2-5.208zm22.291 0a5.208 5.208 0 1 0 5.2 5.208 5.205 5.205 0 0 0-5.196-5.208z" data-name="Path 27550" transform="rotate(18 8.276 52.253)"/>
</svg>
